<?xml version="1.0" ?><!DOCTYPE svg  PUBLIC '-//W3C//DTD SVG 1.1//EN'  'http://www.w3.org/Graphics/SVG/1.1/DTD/svg11.dtd'><svg height="21.409px" id="Capa_1" style="enable-background:new 0 0 27.147 21.409;" version="1.1" viewBox="0 0 27.147 21.409" width="27.147px" xml:space="preserve" xmlns="http://www.w3.org/2000/svg" xmlns:xlink="http://www.w3.org/1999/xlink"><g><path d="M9.971,4.226c5.505,0,9.97,3.402,9.97,7.598   s-4.465,7.597-9.97,7.597c-0.972,0-1.91-0.106-2.798-0.303C6,21.244,3.872,21.716,1.969,21.238c1.147-0.984,2.137-1.916,2.88-2.896   C1.944,17.015,0,14.592,0,11.824C0,7.628,4.465,4.226,9.971,4.226z" style="fill-rule:evenodd;clip-rule:evenodd;fill:#231F20;"/><path d="M17.178,0c-3.416,0-6.432,1.31-8.229,3.307   c4.46-1.197,15.345,3.597,11.237,11.604c1.173,2.126,3.089,2.578,4.993,2.1c-1.147-0.984-2.137-1.916-2.88-2.896   c2.903-1.328,4.848-3.75,4.848-6.519C27.147,3.402,22.683,0,17.178,0z" style="fill-rule:evenodd;clip-rule:evenodd;fill:#231F20;"/></g><g/><g/><g/><g/><g/><g/><g/><g/><g/><g/><g/><g/><g/><g/><g/></svg>